<svg width="26" height="24" viewBox="0 0 26 24" fill="none" xmlns="http://www.w3.org/2000/svg">
<path d="M14.3392 1.01461C14.2624 0.939709 14.1713 0.881012 14.0714 0.842016C13.9714 0.80302 13.8647 0.784517 13.7575 0.787613C13.6502 0.790709 13.5447 0.815338 13.4472 0.860033C13.3497 0.90473 13.2622 0.968582 13.1898 1.04779C13.1175 1.127 13.0618 1.21995 13.0261 1.32111C12.9904 1.42226 12.9754 1.52957 12.9821 1.63663C12.9887 1.7437 13.0168 1.84834 13.0646 1.94434C13.1125 2.04033 13.1792 2.12571 13.2608 2.19541L23.1296 11.2034L0.999951 11.2034C0.787778 11.2034 0.584295 11.2877 0.434266 11.4377C0.284237 11.5878 0.199951 11.7912 0.199951 12.0034C0.199951 12.2156 0.284237 12.4191 0.434266 12.5691C0.584295 12.7191 0.787778 12.8034 0.999951 12.8034L23.1248 12.8034L13.2608 21.8098C13.104 21.9528 13.0104 22.1523 13.0006 22.3642C12.9909 22.5762 13.0657 22.7834 13.2088 22.9402C13.3518 23.097 13.5512 23.1906 13.7632 23.2003C13.9752 23.2101 14.1824 23.1352 14.3392 22.9922L25.4048 12.8882C25.5284 12.7762 25.6272 12.6395 25.6948 12.487C25.7624 12.3344 25.7973 12.1694 25.7973 12.0026C25.7973 11.8358 25.7624 11.6708 25.6948 11.5183C25.6272 11.3657 25.5284 11.2291 25.4048 11.117L14.3392 1.01461Z" fill="#B78E35"/>
</svg>
