<svg width="40" height="34" viewBox="0 0 40 34" fill="none" xmlns="http://www.w3.org/2000/svg">
<path d="M17.9913 33.4783C18.1065 33.5907 18.2431 33.6787 18.393 33.7372C18.5429 33.7957 18.703 33.8235 18.8638 33.8188C19.0247 33.8142 19.1829 33.7772 19.3292 33.7102C19.4755 33.6432 19.6068 33.5474 19.7153 33.4286C19.8238 33.3097 19.9073 33.1703 19.9608 33.0186C20.0144 32.8668 20.0368 32.7059 20.0269 32.5453C20.017 32.3847 19.9749 32.2277 19.903 32.0837C19.8312 31.9398 19.7312 31.8117 19.6089 31.7071L4.80567 18.1951L38.0001 18.1951C38.3183 18.1951 38.6236 18.0687 38.8486 17.8437C39.0736 17.6186 39.2001 17.3134 39.2001 16.9951C39.2001 16.6769 39.0736 16.3716 38.8486 16.1466C38.6236 15.9216 38.3183 15.7951 38.0001 15.7951L4.81287 15.7951L19.6089 2.28553C19.8441 2.07102 19.9844 1.77187 19.999 1.45388C20.0137 1.13589 19.9014 0.82512 19.6869 0.589926C19.4724 0.354732 19.1732 0.214383 18.8552 0.199756C18.5372 0.185128 18.2265 0.297419 17.9913 0.511926L1.39287 15.6679C1.20744 15.836 1.05925 16.041 0.957832 16.2698C0.856415 16.4986 0.804016 16.7461 0.804016 16.9963C0.804016 17.2466 0.856415 17.4941 0.957832 17.7229C1.05925 17.9516 1.20744 18.1567 1.39287 18.3247L17.9913 33.4783Z" fill="#000"/>
</svg>
