<svg width="40" height="34" viewBox="0 0 40 34" fill="none" xmlns="http://www.w3.org/2000/svg">
    <path d="M22.0087 0.521671C21.8935 0.409317 21.7569 0.321274 21.607 0.262779C21.4571 0.204285 21.297 0.176529 21.1362 0.181171C20.9753 0.185818 20.8171 0.222759 20.6708 0.289806C20.5245 0.35685 20.3932 0.452625 20.2847 0.571438C20.1762 0.69025 20.0927 0.829674 20.0392 0.981411C19.9856 1.13315 19.9632 1.29411 19.9731 1.4547C19.983 1.6153 20.0251 1.77227 20.097 1.91626C20.1688 2.06025 20.2688 2.18832 20.3911 2.29287L35.1943 15.8049L1.99993 15.8049C1.68167 15.8049 1.37644 15.9313 1.1514 16.1563C0.926355 16.3814 0.799927 16.6866 0.799927 17.0049C0.799927 17.3231 0.926355 17.6284 1.1514 17.8534C1.37644 18.0784 1.68167 18.2049 1.99993 18.2049H35.1871L20.3911 31.7145C20.1559 31.929 20.0156 32.2281 20.001 32.5461C19.9863 32.8641 20.0986 33.1749 20.3131 33.4101C20.5276 33.6453 20.8268 33.7856 21.1448 33.8002C21.4628 33.8149 21.7735 33.7026 22.0087 33.4881L38.6071 18.3321C38.7926 18.164 38.9408 17.959 39.0422 17.7302C39.1436 17.5014 39.196 17.2539 39.196 17.0037C39.196 16.7534 39.1436 16.5059 39.0422 16.2771C38.9408 16.0484 38.7926 15.8433 38.6071 15.6753L22.0087 0.521671Z" fill="white"/>
</svg>
