<svg width="120" height="72" viewBox="0 0 120 72" fill="none" xmlns="http://www.w3.org/2000/svg">
<path d="M5.2076 42.5984C5.2076 44.2967 5.2076 45.7552 5.11569 46.5305C5.0604 47.066 4.95017 47.4721 4.58198 47.5459C4.41647 47.5829 4.19548 47.6198 3.91957 47.6198C3.69876 47.6198 3.62516 47.6751 3.62516 47.7675C3.62516 47.8966 3.75405 47.9521 3.99317 47.9521C4.72919 47.9521 5.8885 47.8966 6.31163 47.8966C6.82684 47.8966 7.98616 47.9521 9.20059 47.9521C9.40308 47.9521 9.55029 47.8966 9.55029 47.7675C9.55029 47.6751 9.4582 47.6198 9.25588 47.6198C8.97978 47.6198 8.57497 47.5829 8.31737 47.5459C7.76535 47.4721 7.65495 47.066 7.59966 46.5491C7.50775 45.7552 7.50775 44.2967 7.50775 42.5984V35.0293L9.8262 35.0848C11.4639 35.1217 11.9607 35.6386 11.9975 36.1186L12.0159 36.3218C12.0344 36.5988 12.0711 36.691 12.2184 36.691C12.3288 36.691 12.3656 36.5802 12.384 36.3956C12.384 35.9156 12.4391 34.6418 12.4391 34.2542C12.4391 33.9772 12.4208 33.8664 12.2919 33.8664C12.2183 33.8664 12.0711 33.9033 11.7951 33.9586C11.519 33.9956 11.1142 34.051 10.5254 34.051H3.23866C2.63153 34.051 1.93232 34.0141 1.39861 33.9586C0.938512 33.9217 0.754509 33.7371 0.607305 33.7371C0.496902 33.7371 0.441789 33.8479 0.386498 34.088C0.349698 34.2356 0 35.9156 0 36.211C0 36.4142 0.0368009 36.5064 0.165515 36.5064C0.275918 36.5064 0.331031 36.4325 0.36801 36.2848C0.40481 36.1372 0.496901 35.9156 0.680906 35.6388C0.956824 35.2327 1.39861 35.1405 2.46584 35.1034L5.2076 35.0295V42.5985V42.5984ZM12.5088 65.0043L9.8614 57.5808H11.4805L13.3596 63.076L15.163 57.5808H16.7546L14.1227 65.0043H12.5088ZM5.96708 65.0043V58.8352H3.7761V57.5808H9.64611V58.8352H7.46561V65.0043H5.96708ZM19.0439 60.0747C19.0439 61.773 19.0439 63.2315 18.9519 64.0069C18.8967 64.5423 18.7864 64.9484 18.4182 65.0223C18.2527 65.0592 18.0317 65.0961 17.7558 65.0961C17.535 65.0961 17.4614 65.1516 17.4614 65.2438C17.4614 65.3731 17.5903 65.4284 17.8294 65.4284C18.5654 65.4284 19.7248 65.3729 20.1479 65.3729C20.6631 65.3729 21.8224 65.4284 23.0368 65.4284C23.2393 65.4284 23.3865 65.3729 23.3865 65.2438C23.3865 65.1516 23.2946 65.0961 23.0921 65.0961C22.816 65.0961 22.4112 65.0592 22.1536 65.0223C21.6016 64.9484 21.4912 64.5423 21.4359 64.0254C21.344 63.2317 21.344 61.7732 21.344 60.0747V52.5057L23.6625 52.5611C25.3002 52.5981 25.7969 53.115 25.8337 53.5949L25.8522 53.7981C25.8707 54.0749 25.9073 54.1673 26.0547 54.1673C26.1651 54.1673 26.2019 54.0565 26.2202 53.8719C26.2202 53.392 26.2753 52.1181 26.2753 51.7305C26.2753 51.4537 26.257 51.3428 26.1281 51.3428C26.0545 51.3428 25.9073 51.3797 25.6314 51.4351C25.3553 51.4721 24.9505 51.5274 24.3617 51.5274H17.0749C16.4678 51.5274 15.7686 51.4904 15.2349 51.4351C14.7748 51.3982 14.5908 51.2136 14.4436 51.2136C14.3332 51.2136 14.278 51.3244 14.2228 51.5645C14.186 51.7121 13.8363 53.3921 13.8363 53.6875C13.8363 53.8907 13.8731 53.9829 14.0018 53.9829C14.1122 53.9829 14.1673 53.909 14.2043 53.7613C14.2411 53.6137 14.3332 53.3921 14.5172 53.1151C14.7931 52.709 15.2349 52.6168 16.3021 52.5797L19.0439 52.5059V60.0749V60.0747ZM100.528 63.8906C99.6162 62.2446 98.7044 60.5989 97.7923 58.9529C97.7923 60.9041 97.7923 62.855 97.7923 64.8059C97.7923 71.1979 103.635 69.4976 100.528 63.8904V63.8906ZM95.1567 64.9383C95.1567 62.9433 95.1567 60.9481 95.1567 58.9531L91.456 65.8827C88.9733 71.3907 95.3866 70.9418 95.1567 64.9383ZM90.1955 64.2514C91.4583 60.8502 94.7064 53.7621 94.7064 50.5005C94.6628 50.5005 94.6191 50.5005 94.5755 50.5005C94.3915 50.5005 94.2417 50.3477 94.2417 50.16C94.2417 49.9556 94.2417 49.751 94.2417 49.5465C94.0774 49.5465 93.9131 49.5465 93.7489 49.5465C93.5832 49.5465 93.4479 49.4086 93.4479 49.2395V45.9175C93.4479 45.7484 93.583 45.6107 93.7489 45.6107H94.2417V44.7241C94.2417 44.5364 94.3917 44.3834 94.5755 44.3834H95.0401V31.2072H94.4584C94.282 31.2072 94.1377 31.0599 94.1377 30.8801V27.4652C94.1377 27.2854 94.282 27.1382 94.4584 27.1382H95.6614L95.836 21.3077H95.6854C95.4803 21.3077 95.3121 21.1369 95.3121 20.9269V20.722C95.3121 20.5124 95.4803 20.3408 95.6854 20.3408H95.8652L96.019 15.214C95.8168 15.21 95.6527 15.0406 95.6527 14.8332V14.6282C95.6527 14.4185 95.8207 14.2471 96.0261 14.2471H96.0476L96.1759 9.95763H96.1238C95.9526 9.95763 95.8129 9.81511 95.8129 9.6405V9.46892C95.8129 9.2943 95.9526 9.15178 96.1238 9.15178H96.2003L96.337 4.58927H96.2038C96.0606 4.58927 95.9432 4.46977 95.9432 4.32333V4.18028C95.9432 4.0342 96.0606 3.91435 96.2038 3.91435H96.3569L96.4743 0L96.5916 3.91435H96.7447C96.888 3.91435 97.0053 4.03403 97.0053 4.18028V4.32333C97.0053 4.46959 96.888 4.58927 96.7447 4.58927H96.6115L96.7482 9.15178H96.8245C96.9957 9.15178 97.1356 9.2943 97.1356 9.46892V9.6405C97.1356 9.81511 96.9959 9.95763 96.8245 9.95763H96.7724L96.9008 14.2471H96.9223C97.1278 14.2471 97.2958 14.4185 97.2958 14.6282V14.8332C97.2958 15.0406 97.1319 15.2099 96.9296 15.214L97.0832 20.3408H97.2629C97.4681 20.3408 97.6362 20.5124 97.6362 20.722V20.9269C97.6362 21.1369 97.4681 21.3077 97.2629 21.3077H97.1123L97.2869 27.1382H98.49C98.6663 27.1382 98.8105 27.2854 98.8105 27.4652V30.8801C98.8105 31.0601 98.6663 31.2072 98.49 31.2072H97.9082V44.3834H98.373C98.5568 44.3834 98.7068 44.5364 98.7068 44.7241V45.6107H99.1997C99.3654 45.6107 99.5005 45.7484 99.5005 45.9175C99.5005 47.0248 99.5005 48.1322 99.5005 49.2395C99.5005 49.4086 99.3654 49.5465 99.1997 49.5465C99.0354 49.5465 98.8711 49.5465 98.7068 49.5465C98.7068 49.7509 98.7068 49.9554 98.7068 50.16C98.7068 50.3477 98.5568 50.5005 98.373 50.5005C98.3294 50.5005 98.2857 50.5005 98.2421 50.5005C98.2421 53.6121 100.595 58.7452 101.701 61.8521C103.231 66.1483 104.113 67.2292 107.258 64.9597C113.943 60.1346 118.582 52.6949 118.582 43.8761C118.582 31.3089 109.437 20.6594 97.3413 18.1448V17.3508C110.217 19.6222 120 30.8978 120 44.4663C120 59.6728 107.713 72 92.5559 72C84.0192 72 77.1088 68.4254 72.4132 62.7011C70.9456 60.9121 70.6853 60.5241 69.4119 60.535V59.7172C69.6025 59.7349 70.221 59.7422 70.4002 59.7422C71.0441 59.7422 71.2651 59.6867 71.541 59.4838C72.0377 59.1329 72.5899 58.45 72.5899 57.1577C72.5899 54.9425 71.0811 54.3701 70.1243 54.3701C69.7195 54.3701 69.333 54.3885 69.1674 54.4254C69.057 54.4623 69.0202 54.5178 69.0202 54.6469C69.0202 55.0943 69.043 63.5845 69.1123 64.2098C69.1674 64.6714 69.241 64.9668 69.7379 65.0406C69.9772 65.0776 70.3268 65.0959 70.5293 65.0959C70.658 65.0959 70.7318 65.1883 70.7318 65.2622C70.7318 65.3729 70.6029 65.4282 70.4005 65.4282C69.462 65.4282 68.1187 65.3728 67.8796 65.3728C67.5669 65.3728 66.5363 65.4282 65.8923 65.4282C65.6898 65.4282 65.5796 65.3728 65.5796 65.2622C65.5796 65.1883 65.6349 65.0959 65.8372 65.0959C66.0763 65.0959 66.2603 65.0774 66.4075 65.0406C66.7388 64.9668 66.8308 64.6714 66.886 64.2098C66.9596 63.5452 66.9596 62.3083 66.9596 60.8684V58.0991C66.9596 55.7176 66.9596 55.2746 66.9412 54.7761C66.9044 54.2406 66.7572 54.0746 66.242 53.9269C66.1133 53.8899 65.8372 53.8714 65.5981 53.8714C65.4326 53.8714 65.3222 53.8161 65.3222 53.7053C65.3222 53.5946 65.4509 53.5577 65.6902 53.5577C66.5366 53.5577 67.567 53.5946 67.8982 53.5946C68.4503 53.5946 69.9223 53.5577 70.4192 53.5577C71.4496 53.5577 72.6273 53.65 73.4922 54.2222C73.9523 54.5362 74.633 55.3299 74.633 56.3822C74.633 57.4353 74.09 58.3824 72.8127 59.4975C75.3249 62.9155 78.5751 65.5404 82.2885 67.2666C88.5558 70.1802 88.4042 67.8502 90.1955 64.251V64.2514ZM92.5565 16.933C93.6109 16.933 94.6509 16.9946 95.6742 17.1109V17.852C94.607 17.6991 93.5197 17.6096 92.4162 17.5871C85.3582 17.4433 78.9533 20.0638 74.2468 24.4398C71.7769 26.7364 70.411 28.8762 68.7964 31.6167C70.2756 28.1034 72.8877 25.1771 74.2607 23.9441C79.116 19.5842 85.5275 16.9329 92.5563 16.9329L92.5565 16.933ZM32.633 65.6316C36.81 65.6316 39.423 62.807 39.423 59.2071C39.423 55.6072 36.8838 53.3365 32.7987 53.3365C27.8857 53.3365 26.0087 56.8073 26.0087 59.4841C26.0087 62.2717 27.9223 65.6317 32.633 65.6317V65.6316ZM33.2954 64.7824C30.2409 64.7824 28.4007 62.2348 28.4007 59.0041C28.4007 55.1273 30.5169 54.1673 32.3201 54.1673C34.933 54.1673 37.0123 56.3087 37.0123 59.7795C37.0123 64.2471 34.4361 64.7824 33.2952 64.7824H33.2954ZM43.6459 65.0594C43.7931 65.4655 43.8852 65.6316 44.0875 65.6316C44.3268 65.6316 44.4187 65.447 44.7131 64.8009C45.3755 63.361 47.5468 57.8041 47.8229 57.1395H47.8597L51.1535 64.8748C51.3928 65.447 51.5032 65.6316 51.724 65.6316C51.9633 65.6316 52.0552 65.447 52.2392 64.8931C53.0305 62.5487 54.6865 57.564 55.441 55.5889C55.7723 54.6842 55.9563 54.0935 56.3428 53.9458C56.5268 53.8903 56.7476 53.8719 56.9131 53.8719C57.0603 53.8719 57.1339 53.7981 57.1339 53.6873C57.1339 53.5951 57.0235 53.5582 56.8395 53.5582C56.3058 53.5582 55.6066 53.5951 55.4962 53.5951C55.349 53.5951 54.6129 53.5582 53.7665 53.5582C53.5089 53.5582 53.38 53.5951 53.38 53.7059C53.38 53.7983 53.5087 53.8719 53.6561 53.8719C54.3 53.8719 54.4472 54.0565 54.4472 54.315C54.4472 54.5365 54.392 54.8504 54.2817 55.2196C53.7112 57.0473 52.4785 61.1825 52.1656 62.0871H52.1103L48.8716 54.3366C48.6691 53.835 48.5219 53.5951 48.3379 53.5951C48.1907 53.5951 48.0252 53.7243 47.8595 54.1705L44.7681 62.1918H44.7128C44.4735 61.4718 43.0014 56.7211 42.7255 55.6843C42.523 54.9642 42.3758 54.4473 42.3758 54.2444C42.3758 54.0783 42.3943 53.9859 42.5413 53.9306C42.6701 53.8907 42.8173 53.8721 42.9462 53.8721C43.1117 53.8721 43.2406 53.8168 43.2406 53.7061C43.2406 53.5953 43.1302 53.5584 42.8909 53.5584C41.9524 53.5584 41.1612 53.5953 41.014 53.5953C40.8668 53.5953 39.9651 53.5584 39.1372 53.5584C38.8979 53.5584 38.7692 53.5953 38.7692 53.7061C38.7692 53.8168 38.8611 53.8721 39.0268 53.8721C39.174 53.8721 39.4867 53.8907 39.6524 54.0014C39.8917 54.1491 40.0204 54.5183 40.2229 55.0907L43.6455 65.0597L43.6459 65.0594ZM58.0077 60.8687C58.0077 62.3087 58.0077 63.5456 57.9341 64.2102C57.8788 64.6718 57.7869 64.9672 57.4557 65.041C57.3085 65.0779 57.1245 65.0963 56.8852 65.0963C56.6829 65.0963 56.6276 65.1887 56.6276 65.2625C56.6276 65.3733 56.738 65.4286 56.9403 65.4286C57.2715 65.4286 57.6763 65.41 58.0628 65.3917C58.4493 65.3917 58.7988 65.3731 58.9828 65.3731C59.4612 65.3731 60.0685 65.3917 60.8597 65.41C61.651 65.447 62.6263 65.4653 63.8407 65.4653C64.448 65.4653 64.5952 65.4653 64.7056 65.0592C64.7977 64.7453 64.9264 63.6746 64.9264 63.3237C64.9264 63.1577 64.908 62.9545 64.7792 62.9545C64.6688 62.9545 64.632 63.0284 64.5952 63.1946C64.4848 63.8406 64.3008 64.1729 63.896 64.3575C63.4727 64.5421 62.792 64.5607 62.3687 64.5607C60.7126 64.5607 60.2157 64.3208 60.1789 63.2499C60.1605 62.7885 60.1789 61.4591 60.1789 60.9239V59.6685C60.1789 59.5763 60.1974 59.5025 60.271 59.5025C60.6758 59.5025 62.5159 59.5394 62.8103 59.5763C63.4174 59.6318 63.6199 59.8717 63.712 60.1854C63.7488 60.3886 63.7488 60.5916 63.7671 60.7578C63.7671 60.8316 63.8039 60.8871 63.9143 60.8871C64.0615 60.8871 64.0798 60.6656 64.0798 60.5363C64.0798 60.4255 64.1166 59.7979 64.1535 59.4839C64.2455 58.6902 64.2823 58.4316 64.2823 58.3394C64.2823 58.247 64.2271 58.1733 64.1535 58.1733C64.0798 58.1733 64.0247 58.2655 63.8958 58.3763C63.7486 58.5424 63.5093 58.5795 63.123 58.6164C62.755 58.6533 60.6574 58.6533 60.2893 58.6533C60.1973 58.6533 60.1789 58.5795 60.1789 58.4872V54.6104C60.1789 54.5181 60.2157 54.4627 60.2893 54.4627C60.6206 54.4627 62.5527 54.4996 62.8286 54.5365C63.6382 54.6104 63.7669 54.8319 63.8958 55.1087C63.9878 55.2933 64.0062 55.5703 64.0062 55.6811C64.0062 55.8104 64.0247 55.8842 64.135 55.8842C64.2638 55.8842 64.3006 55.6996 64.319 55.6258C64.3558 55.4412 64.3926 54.758 64.411 54.592C64.4479 53.8719 64.5398 53.6873 64.5398 53.5766C64.5398 53.5027 64.5213 53.4289 64.4294 53.4289C64.3558 53.4289 64.2638 53.4844 64.1718 53.5027C64.043 53.5213 63.7853 53.5766 63.4909 53.5951C63.1781 53.6137 59.5898 53.5951 59.0746 53.5951C58.6146 53.5951 57.5842 53.5582 56.7376 53.5582C56.4985 53.5582 56.3696 53.5951 56.3696 53.7059C56.3696 53.8166 56.48 53.8719 56.6457 53.8719C56.8848 53.8719 57.1609 53.8905 57.2896 53.9274C57.8048 54.0751 57.952 54.2411 57.9888 54.7766C58.0073 55.2751 58.0073 55.7182 58.0073 58.0997V60.8689L58.0077 60.8687ZM17.5668 44.0017C17.6404 44.0017 17.6956 44.0202 17.7324 44.1125L18.9836 47.2693C19.0572 47.4539 18.9468 47.6016 18.8364 47.6201C18.6709 47.6387 18.6339 47.694 18.6339 47.7862C18.6339 47.897 18.8179 47.897 19.1123 47.9153C20.4739 47.9523 21.6516 47.9523 22.2221 47.9523C22.8294 47.9523 22.9213 47.9153 22.9213 47.7862C22.9213 47.6754 22.8477 47.6201 22.7005 47.6201C22.5165 47.6201 22.3325 47.6016 22.0932 47.5647C21.7988 47.4908 21.3387 47.2909 20.7131 45.8756C19.6826 43.5034 16.9777 37.0789 16.5912 36.2112C16.4257 35.8603 16.3521 35.7127 16.1128 35.7127C15.9472 35.7127 15.8184 35.8973 15.6343 36.3403L11.4021 46.217C11.0709 47.0109 10.7949 47.4908 10.0587 47.6016C9.91154 47.6016 9.72754 47.6201 9.58033 47.6201C9.45162 47.6201 9.39633 47.694 9.39633 47.7862C9.39633 47.9153 9.48842 47.9523 9.69073 47.9523C10.5372 47.9523 11.4021 47.8968 11.5676 47.8968C12.0828 47.8968 12.8373 47.9523 13.3708 47.9523C13.5363 47.9523 13.6284 47.9153 13.6284 47.7862C13.6284 47.6938 13.5916 47.6201 13.3891 47.6201H13.15C12.6531 47.6201 12.5059 47.4541 12.5059 47.1771C12.5059 46.9925 12.5795 46.6047 12.7452 46.2171L13.6101 44.1126C13.6469 44.0204 13.6654 44.0019 13.7573 44.0019H17.5663L17.5668 44.0017ZM14.0891 43.134C14.034 43.134 13.9972 43.097 14.034 43.0232L15.5981 39.0541C15.6166 38.9986 15.6349 38.9064 15.6902 38.9064C15.727 38.9064 15.7453 38.9986 15.7638 39.0541L17.2911 43.0418C17.3094 43.0972 17.2911 43.134 17.2175 43.134H14.0892H14.0891ZM25.3258 48.1554C26.1907 48.1554 27.2579 48.063 28.0308 47.5092C29.2084 46.6786 29.65 45.737 29.65 44.5739C29.65 43.1523 28.9876 41.9525 26.8531 40.7708L26.1907 40.4016C24.737 39.5894 24.4794 39.0355 24.4794 38.3339C24.4794 37.2632 25.5283 36.6539 26.6874 36.6539C27.7363 36.6539 28.2516 37.0969 28.4907 37.3923C28.8404 37.7984 28.914 38.2784 28.914 38.4261C28.914 38.6107 28.9693 38.7031 29.0795 38.7031C29.2082 38.7031 29.282 38.537 29.282 38.2047C29.282 36.9678 29.3373 36.5247 29.3373 36.3218C29.3373 36.211 29.2637 36.1557 29.1165 36.1186C28.6932 36.0078 27.8652 35.8602 26.8163 35.8602C24.5713 35.8602 22.7312 37.0971 22.7312 39.017C22.7312 40.4016 23.3569 41.454 25.2705 42.58L26.209 43.1338C27.6443 43.983 27.8099 44.6661 27.8099 45.3491C27.8099 46.4567 26.9635 47.3428 25.5651 47.3428C24.553 47.3428 23.3385 46.955 22.9888 45.7921C22.8968 45.5151 22.8416 45.1828 22.8416 44.9798C22.8416 44.8691 22.8232 44.7214 22.6761 44.7214C22.5472 44.7214 22.4736 44.8875 22.4736 45.1275C22.4551 45.386 22.3815 46.3645 22.3815 47.2137C22.3815 47.5645 22.4368 47.6383 22.6944 47.7491C23.3937 48.0628 24.3873 48.1552 25.3258 48.1552V48.1554ZM34.5017 41.1955C34.4464 41.1955 34.3913 41.177 34.3913 41.0848V40.7525C34.3913 38.371 34.3913 37.7986 34.4281 37.3003C34.4649 36.7464 34.5936 36.5249 35.0352 36.4511C35.2192 36.4142 35.3664 36.3958 35.4953 36.3958C35.6978 36.3958 35.7897 36.3403 35.7897 36.2295C35.7897 36.1188 35.6793 36.0819 35.4585 36.0819C34.8146 36.0819 33.6921 36.1188 33.3056 36.1188C32.8639 36.1188 31.7967 36.0819 30.9318 36.0819C30.711 36.0819 30.5821 36.1188 30.5821 36.2295C30.5821 36.3403 30.6925 36.3958 30.858 36.3958C31.0973 36.3958 31.3732 36.4143 31.5021 36.4511C32.0173 36.5988 32.1645 36.765 32.2013 37.3003C32.2198 37.7986 32.2198 38.2418 32.2198 40.6232V43.3924C32.2198 44.8323 32.2198 46.0693 32.1462 46.7339C32.0911 47.1953 31.999 47.4907 31.6678 47.5645C31.5206 47.6014 31.3366 47.62 31.0973 47.62C30.8948 47.62 30.8397 47.7122 30.8397 47.786C30.8397 47.8968 30.9501 47.9521 31.1524 47.9521C31.7964 47.9521 32.8638 47.8966 33.2318 47.8966C33.6919 47.8966 34.8144 47.9521 35.8631 47.9521C36.0656 47.9521 36.1943 47.8966 36.1943 47.786C36.1943 47.7122 36.1207 47.62 35.9367 47.62C35.6976 47.62 35.3296 47.6014 35.1088 47.5645C34.6304 47.4907 34.5383 47.1953 34.4832 46.7522C34.4096 46.0691 34.3913 44.8693 34.3913 43.4292V42.2291C34.3913 42.1553 34.4464 42.1367 34.5017 42.1367H40.6108C40.6476 42.1367 40.7029 42.1737 40.7029 42.2291V43.4292C40.7029 44.8691 40.7029 46.0691 40.6293 46.7337C40.5742 47.1951 40.4821 47.4905 40.1509 47.5643C40.0037 47.6012 39.8197 47.6198 39.5621 47.6198C39.3781 47.6198 39.3045 47.712 39.3045 47.7858C39.3045 47.8966 39.4332 47.9519 39.6542 47.9519C40.2798 47.9519 41.4206 47.8964 41.7886 47.8964C42.2302 47.8964 43.2975 47.9519 44.3464 47.9519C44.5489 47.9519 44.6776 47.8964 44.6776 47.7858C44.6776 47.712 44.5855 47.6198 44.42 47.6198C44.1624 47.6198 43.8128 47.6012 43.592 47.5643C43.0953 47.4905 43.0032 47.1951 42.9481 46.7521C42.8745 46.0689 42.8745 44.832 42.8745 43.3921V40.6228C42.8745 38.2413 42.8745 37.7983 42.9113 37.2999C42.9481 36.7461 43.0768 36.5246 43.5001 36.4507C43.7024 36.4138 43.8498 36.3954 43.9785 36.3954C44.1625 36.3954 44.2729 36.34 44.2729 36.2292C44.2729 36.1184 44.1625 36.0815 43.9232 36.0815C43.2976 36.0815 42.2304 36.1184 41.8439 36.1184C41.4206 36.1184 40.2798 36.0815 39.4149 36.0815C39.1756 36.0815 39.0652 36.1184 39.0652 36.2292C39.0652 36.34 39.1573 36.3954 39.3411 36.3954C39.5619 36.3954 39.838 36.414 39.9667 36.4507C40.4819 36.5984 40.6291 36.7646 40.6659 37.2999C40.6844 37.7983 40.7027 38.3706 40.7027 40.7521V41.0844C40.7027 41.1766 40.6474 41.1952 40.6106 41.1952H34.5015L34.5017 41.1955ZM49.3634 40.6232C49.3634 38.2417 49.3634 37.7986 49.3819 37.3003C49.4187 36.7464 49.5474 36.5249 49.9892 36.4511C50.1917 36.4142 50.2836 36.3958 50.4491 36.3958C50.5778 36.3958 50.6699 36.3403 50.6699 36.2295C50.6699 36.1188 50.5595 36.0819 50.3202 36.0819C49.7865 36.0819 48.6274 36.1188 48.2409 36.1188C47.8544 36.1188 46.8239 36.0819 45.9775 36.0819C45.7382 36.0819 45.6095 36.1188 45.6095 36.2295C45.6095 36.3403 45.7199 36.3958 45.8854 36.3958C46.1247 36.3958 46.4006 36.4143 46.5295 36.4511C47.0447 36.5988 47.1919 36.765 47.2287 37.3003C47.2472 37.7986 47.2472 38.2418 47.2472 40.6232V43.3924C47.2472 44.8323 47.2472 46.0693 47.1736 46.7339C47.1183 47.1953 47.0264 47.4907 46.6952 47.5645C46.548 47.6014 46.364 47.62 46.1247 47.62C45.9222 47.62 45.8671 47.7122 45.8671 47.786C45.8671 47.8968 45.9775 47.9521 46.18 47.9521C46.8239 47.9521 47.8545 47.8966 48.2225 47.8966C48.6274 47.8966 49.7867 47.9521 50.6884 47.9521C50.8724 47.9521 51.0011 47.8966 51.0011 47.786C51.0011 47.7122 50.9092 47.62 50.7803 47.62C50.5778 47.62 50.2098 47.6014 49.9892 47.5645C49.5844 47.4907 49.4372 47.1953 49.4004 46.7522C49.3636 46.0691 49.3636 44.8322 49.3636 43.3922V41.9707H49.4372L49.6027 42.1922C49.9524 42.6722 53.0621 46.2906 53.7614 46.8997C54.4606 47.5088 54.9943 47.8411 55.859 47.9152C56.2087 47.9521 56.5029 47.9521 56.9815 47.9521H58.3985C58.6929 47.9521 58.785 47.8966 58.785 47.786C58.785 47.6936 58.6929 47.62 58.5641 47.62C58.3801 47.62 58.0489 47.62 57.5705 47.4168C56.7056 47.066 56.08 46.383 55.3625 45.7368C54.7369 45.1461 51.5535 41.823 50.983 41.0846C51.4797 40.5122 53.8904 38.2231 54.4056 37.7431C55.0865 37.0971 55.6018 36.7648 56.117 36.5802C56.4114 36.4694 56.8162 36.3956 57.0553 36.3956C57.2025 36.3956 57.2946 36.3401 57.2946 36.2294C57.2946 36.1186 57.1842 36.0817 57.0187 36.0817C56.5218 36.0817 55.6201 36.1186 55.1234 36.1186C54.6817 36.1186 53.7985 36.0817 53.4488 36.0817C53.2833 36.0817 53.1912 36.1186 53.1912 36.2294C53.1912 36.3218 53.2648 36.3587 53.412 36.3956C53.5592 36.4325 53.6328 36.5433 53.6328 36.7094C53.6328 36.9862 53.2831 37.3554 52.8232 37.8725C52.3448 38.4079 49.9895 40.7339 49.4375 41.3247H49.3639V40.6232H49.3634ZM58.9256 43.3924C58.9256 44.8323 58.9256 46.0693 58.852 46.7339C58.7969 47.1953 58.7048 47.4907 58.3736 47.5645C58.2264 47.6014 58.0424 47.62 57.8031 47.62C57.6006 47.62 57.5455 47.7122 57.5455 47.786C57.5455 47.8968 57.6559 47.9521 57.8582 47.9521C58.1894 47.9521 58.5942 47.9335 58.9807 47.9152C59.3672 47.9152 59.7167 47.8966 59.9007 47.8966C60.3791 47.8966 60.9864 47.9152 61.7776 47.9335C62.5689 47.9704 63.5442 47.989 64.7586 47.989C65.3659 47.989 65.5131 47.989 65.6235 47.5829C65.7154 47.2691 65.8443 46.1982 65.8443 45.8474C65.8443 45.6813 65.8258 45.4782 65.6971 45.4782C65.5867 45.4782 65.5499 45.552 65.5131 45.7181C65.4027 46.3643 65.2187 46.6966 64.8139 46.8812C64.3906 47.0658 63.7099 47.0843 63.2866 47.0843C61.6305 47.0843 61.1336 46.8443 61.0968 45.7736C61.0783 45.3121 61.0968 43.9828 61.0968 43.4475V42.1922C61.0968 42.0998 61.1153 42.0262 61.1889 42.0262C61.5937 42.0262 63.4338 42.0631 63.7282 42.1C64.3355 42.1555 64.5378 42.3954 64.6299 42.7093C64.6667 42.9124 64.6667 43.1154 64.6852 43.2817C64.6852 43.3555 64.722 43.4108 64.8324 43.4108C64.9796 43.4108 64.9979 43.1893 64.9979 43.0599C64.9979 42.9492 65.0347 42.3215 65.0715 42.0076C65.1636 41.2137 65.2002 40.9553 65.2002 40.8631C65.2002 40.7707 65.1451 40.697 65.0715 40.697C64.9979 40.697 64.9428 40.7892 64.8139 40.9002C64.6667 41.0662 64.4274 41.1033 64.0411 41.1401C63.6731 41.177 61.5752 41.177 61.2072 41.177C61.1153 41.177 61.0968 41.1031 61.0968 41.0109V37.1342C61.0968 37.0418 61.1336 36.9865 61.2072 36.9865C61.5384 36.9865 63.4706 37.0234 63.7465 37.0604C64.5561 37.1342 64.685 37.3557 64.8139 37.6327C64.9058 37.8173 64.9243 38.0942 64.9243 38.2051C64.9243 38.3342 64.9428 38.4083 65.053 38.4083C65.1817 38.4083 65.2185 38.2236 65.237 38.1498C65.2738 37.9652 65.3106 37.2821 65.3291 37.116C65.3659 36.396 65.4578 36.2114 65.4578 36.1006C65.4578 36.0268 65.4393 35.9529 65.3474 35.9529C65.2738 35.9529 65.1819 36.0084 65.0898 36.0268C64.9611 36.0453 64.7033 36.1006 64.4089 36.119C64.0962 36.1375 60.5078 36.119 59.9926 36.119C59.5327 36.119 58.5021 36.082 57.6557 36.082C57.4164 36.082 57.2877 36.119 57.2877 36.2297C57.2877 36.3405 57.3981 36.396 57.5638 36.396C57.8029 36.396 58.079 36.4145 58.2077 36.4513C58.7229 36.5989 58.8701 36.7652 58.9069 37.3004C58.9254 37.7988 58.9254 38.242 58.9254 40.6233V43.3926L58.9256 43.3924ZM69.0583 39.4048H69.1136C69.4263 39.6818 71.1346 41.5831 72.901 43.2817C74.5939 44.9247 76.6149 46.8632 77.627 47.8046C77.7925 47.9706 78.0165 48.1369 78.2925 48.1369C78.4212 48.1369 78.5501 47.9892 78.5501 47.6385L78.7341 37.7433C78.7526 36.8572 78.8813 36.5804 79.3229 36.4511C79.5254 36.3958 79.6541 36.3958 79.8198 36.3958C80.0038 36.3958 80.0957 36.3219 80.0957 36.2295C80.0957 36.1004 79.9485 36.0819 79.7277 36.0819C78.9364 36.0819 78.3293 36.1188 78.1453 36.1188C77.7925 36.1188 76.9278 36.0819 76.0812 36.0819C75.8421 36.0819 75.6764 36.1004 75.6764 36.2295C75.6764 36.3219 75.7315 36.3958 75.934 36.3958C76.1548 36.3958 76.5413 36.3958 76.7804 36.488C77.1667 36.6357 77.3141 36.9127 77.3324 37.8726L77.4981 44.8509H77.4245C77.1852 44.6294 75.0323 42.4139 73.9315 41.3248C71.5762 39.0172 69.1502 36.5249 68.9479 36.3219C68.672 36.0451 68.4511 35.805 68.2487 35.805C68.083 35.805 67.9726 36.0266 67.9726 36.3405L67.8254 45.645C67.8069 47.011 67.7518 47.4357 67.3286 47.5465C67.1078 47.602 66.8134 47.6203 66.5926 47.6203C66.4454 47.6203 66.335 47.6942 66.335 47.7864C66.335 47.9341 66.4822 47.9524 66.703 47.9524C67.5311 47.9524 68.3039 47.897 68.4511 47.897C68.7456 47.897 69.5001 47.9524 70.5458 47.9524C70.7666 47.9524 70.9138 47.9155 70.9138 47.7864C70.9138 47.694 70.8217 47.6203 70.6377 47.6203C70.3801 47.6203 70.0674 47.6018 69.7913 47.5096C69.4816 47.3988 69.2791 47.0296 69.2423 45.8112L69.0583 39.4051V39.4048ZM84.9321 43.3955C84.9321 44.8354 84.9321 46.0723 84.8585 46.7369C84.8032 47.1953 84.7113 47.4907 84.3801 47.5647C84.2514 47.6016 84.0489 47.6201 83.8096 47.6201C83.6071 47.6201 83.552 47.7124 83.552 47.7862C83.552 47.897 83.6624 47.9523 83.8647 47.9523C84.5086 47.9523 85.6128 47.8968 85.9808 47.8968C86.4409 47.8968 87.5235 47.9523 88.5907 47.9523C88.7747 47.9523 88.9034 47.8968 88.9034 47.7862C88.9034 47.7124 88.8298 47.6201 88.6458 47.6201C88.4065 47.6201 88.0385 47.6016 87.8177 47.5647C87.3423 47.4908 87.2504 47.1955 87.1951 46.7554C87.1215 46.0723 87.103 44.8355 87.103 43.3956V37.0481L89.1425 37.085C90.593 37.1033 91.0163 37.5833 91.0531 37.9895L91.0714 38.1557C91.0899 38.3956 91.1267 38.4694 91.2585 38.4694C91.3506 38.4694 91.3874 38.377 91.4057 38.211C91.4057 37.7988 91.4425 36.6357 91.4425 36.3034C91.4425 36.0633 91.424 35.9711 91.3138 35.9711C91.2585 35.9711 91.1267 36.008 90.8691 36.0449C90.6298 36.0849 90.2803 36.1218 89.7651 36.1218H83.2021C82.6684 36.1218 82.0613 36.1033 81.5829 36.048C81.178 35.9895 81.0124 35.8603 80.8836 35.8603C80.7915 35.8603 80.7364 35.9526 80.6996 36.1557C80.6628 36.2881 80.3499 37.8048 80.3499 38.0633C80.3499 38.2294 80.3867 38.3217 80.4971 38.3217C80.6075 38.3217 80.6443 38.2479 80.6811 38.1186C80.7179 38.0078 80.7915 37.8049 80.9571 37.5831C81.1964 37.2323 81.5827 37.1215 82.5212 37.1032L84.9317 37.0479V43.3955H84.9321Z" fill="#222222"/>
</svg>
