<svg width="64" height="64" viewBox="0 0 64 64" fill="none" xmlns="http://www.w3.org/2000/svg">
<rect x="0.5" y="63.5" width="63" height="63" rx="31.5" transform="rotate(-90 0.5 63.5)" stroke="white"/>
<path d="M32.8571 24.9693C32.8079 24.9214 32.7496 24.8838 32.6857 24.8588C32.6217 24.8339 32.5534 24.822 32.4848 24.824C32.4162 24.826 32.3486 24.8418 32.2862 24.8704C32.2238 24.899 32.1678 24.9398 32.1215 24.9905C32.0752 25.0412 32.0396 25.1007 32.0167 25.1655C31.9939 25.2302 31.9843 25.2989 31.9885 25.3674C31.9928 25.4359 32.0107 25.5029 32.0414 25.5643C32.072 25.6258 32.1147 25.6804 32.1669 25.725L38.4829 31.4901H24.32C24.1842 31.4901 24.054 31.5441 23.9579 31.6401C23.8619 31.7361 23.808 31.8663 23.808 32.0021C23.808 32.1379 23.8619 32.2682 23.9579 32.3642C24.054 32.4602 24.1842 32.5141 24.32 32.5141H38.4799L32.1669 38.2782C32.0665 38.3698 32.0067 38.4974 32.0004 38.6331C31.9942 38.7687 32.0421 38.9013 32.1336 39.0017C32.2251 39.102 32.3528 39.1619 32.4885 39.1682C32.6241 39.1744 32.7567 39.1265 32.8571 39.035L39.9391 32.5684C40.0182 32.4967 40.0814 32.4092 40.1247 32.3116C40.1679 32.214 40.1903 32.1084 40.1903 32.0016C40.1903 31.8948 40.1679 31.7893 40.1247 31.6916C40.0814 31.594 40.0182 31.5065 39.9391 31.4348L32.8571 24.9693Z" fill="white"/>
</svg>
