<svg width="64" height="64" viewBox="0 0 64 64" fill="none" xmlns="http://www.w3.org/2000/svg">
<rect x="0.5" y="63.5" width="63" height="63" rx="31.5" transform="rotate(-90 0.5 63.5)" stroke="#B78E35"/>
<path d="M32.8571 24.9695C32.8079 24.9216 32.7496 24.884 32.6857 24.8591C32.6217 24.8341 32.5534 24.8223 32.4848 24.8243C32.4162 24.8262 32.3486 24.842 32.2862 24.8706C32.2238 24.8992 32.1678 24.9401 32.1215 24.9908C32.0752 25.0415 32.0396 25.101 32.0167 25.1657C31.9939 25.2304 31.9843 25.2991 31.9885 25.3676C31.9928 25.4362 32.0107 25.5031 32.0414 25.5646C32.072 25.626 32.1147 25.6807 32.1669 25.7253L38.4829 31.4904H24.32C24.1842 31.4904 24.054 31.5443 23.9579 31.6403C23.8619 31.7364 23.808 31.8666 23.808 32.0024C23.808 32.1382 23.8619 32.2684 23.9579 32.3644C24.054 32.4604 24.1842 32.5144 24.32 32.5144H38.4799L32.1669 38.2785C32.0665 38.37 32.0067 38.4976 32.0004 38.6333C31.9942 38.769 32.0421 38.9016 32.1336 39.0019C32.2251 39.1023 32.3528 39.1622 32.4885 39.1684C32.6241 39.1746 32.7567 39.1267 32.8571 39.0352L39.9391 32.5687C40.0182 32.4969 40.0814 32.4095 40.1247 32.3119C40.1679 32.2142 40.1903 32.1086 40.1903 32.0019C40.1903 31.8951 40.1679 31.7895 40.1247 31.6919C40.0814 31.5943 40.0182 31.5068 39.9391 31.4351L32.8571 24.9695Z" fill="#B78E35"/>
</svg>
