<svg width="100" height="92" viewBox="0 0 100 92" fill="none" xmlns="http://www.w3.org/2000/svg">
<path d="M95.7329 47.0361H92.2615C91.9365 41.7581 90.6509 36.6639 88.4262 31.8749C88.0867 31.1418 87.2169 30.8244 86.4838 31.1639C85.7506 31.5042 85.4324 32.3739 85.7727 33.1071C87.8166 37.5085 89.0091 42.1876 89.3295 47.0361H22.3236C21.5157 47.0361 20.8611 47.6907 20.8611 48.4986C20.8611 49.3066 21.5157 49.9612 22.3236 49.9612H95.7329C96.4729 49.9612 97.0741 50.5631 97.0741 51.3032V53.0885C97.0741 53.8285 96.4729 54.4305 95.7329 54.4305H4.26712C3.52707 54.4305 2.92587 53.8285 2.92587 53.0885V51.3032C2.92587 50.5631 3.52707 49.9612 4.26712 49.9612H15.5052C16.3132 49.9612 16.9685 49.3066 16.9685 48.4986C16.9685 47.6907 16.3132 47.0361 15.5052 47.0361H10.6705C11.3152 37.3185 15.4823 28.2784 22.506 21.441C29.2747 14.8522 38.0211 10.9734 47.3686 10.3585C47.374 10.3585 47.3793 10.3593 47.3846 10.3585C47.7829 10.3326 48.1766 10.3127 48.5657 10.2982C48.6435 10.296 48.7206 10.2921 48.7984 10.2899C48.9372 10.2853 49.0753 10.2822 49.2119 10.2792C49.4743 10.2746 49.7368 10.27 50 10.27C50.3494 10.27 50.6989 10.2769 51.0475 10.286C51.1505 10.2891 51.2527 10.2921 51.3565 10.2952C51.6251 10.3044 51.8929 10.3181 52.1606 10.3326C52.3026 10.3402 52.4445 10.3478 52.5871 10.357C64.5966 11.1459 75.6454 17.3913 82.5211 27.4056C82.9781 28.0709 83.889 28.2411 84.5551 27.7833C85.2211 27.3263 85.3905 26.4153 84.9327 25.7493C78.167 15.8944 67.6361 9.43994 55.9967 7.77521C56.7261 6.64301 57.1358 5.31015 57.1358 3.91397C57.1358 3.11899 56.781 1.65338 54.4052 0.779053C53.2188 0.342651 51.6541 0.101562 50 0.101562C48.3452 0.101562 46.7804 0.342651 45.594 0.779053C43.2182 1.65338 42.8642 3.11899 42.8642 3.91397C42.8642 5.30634 43.2724 6.6369 43.9972 7.76682C35.1601 9.01727 26.9638 13.0181 20.4651 19.3444C12.8731 26.735 8.38776 36.522 7.73849 47.0353H4.26712C1.91422 47.0361 0 48.9503 0 51.3032V53.0885C0 55.4421 1.91422 57.3564 4.26712 57.3564H20.0256C19.239 57.895 18.4853 58.4992 17.7795 59.1699L17.7505 59.1973C17.7055 59.2393 17.6628 59.2843 17.6239 59.3324L10.6789 67.7659C9.80759 67.2128 8.77609 67.0114 7.75833 67.2067C6.69708 67.4096 5.77927 68.0139 5.17349 68.908L2.44217 72.9356C1.19324 74.7781 1.67542 77.295 3.51639 78.5455L22.2061 91.2423C22.8836 91.7024 23.6664 91.9419 24.4682 91.9419C24.7231 91.9419 24.9802 91.9175 25.2365 91.8687C26.297 91.6657 27.2148 91.0615 27.8206 90.1673L30.5519 86.1398C31.8008 84.2973 31.3194 81.7803 29.4785 80.5299L29.3716 80.4574C30.6725 78.9811 32.4066 77.9229 34.2934 77.4865C38.269 76.5656 42.9474 77.1584 46.1205 77.6841C50.0458 78.3341 54.1687 78.1121 58.0437 77.0417L63.43 75.5532C67.0181 74.5614 70.3201 72.8913 73.2452 70.5888C73.2674 70.5712 73.2887 70.5537 73.3101 70.5346L82.5577 62.3445C84.1339 61.1382 84.4772 59.0493 83.9333 57.3564H95.7329C98.0858 57.3564 100 55.4421 100 53.0892V51.3032C100 48.9503 98.0858 47.0361 95.7329 47.0361ZM50 3.02744C52.4635 3.02744 53.9398 3.63702 54.2099 3.97577C54.1901 5.36356 53.4882 6.64377 52.346 7.41129C52.0584 7.39603 51.7746 7.38382 51.4915 7.37314C51.3962 7.37009 51.3008 7.36551 51.2054 7.36322C50.7973 7.35101 50.3944 7.34491 50 7.34491C49.72 7.34491 49.4347 7.34872 49.147 7.35483C49.0082 7.35712 48.8686 7.36093 48.7289 7.36551C48.5626 7.37085 48.3948 7.37619 48.2269 7.38306C48.0354 7.39145 47.8439 7.39984 47.6532 7.41052C46.5111 6.64301 45.8099 5.36279 45.7901 3.97577C46.0602 3.63702 47.5365 3.02744 50 3.02744ZM60.4904 58.0621C60.3813 57.8149 60.2509 57.5799 60.1036 57.3564H74.1348L68.0679 61.3717L59.42 63.8734L59.1263 63.8802C60.791 62.4925 61.3983 60.1228 60.4904 58.0621ZM44.6274 57.3564L42.5163 57.7966L40.8844 57.3564H44.6274ZM28.1303 84.4979L25.3998 88.5255C25.2327 88.7727 24.9794 88.939 24.6864 88.9955C24.3942 89.0511 24.0967 88.9901 23.8503 88.8223L5.16052 76.1254C4.6524 75.7806 4.51965 75.0863 4.8645 74.5782L7.59583 70.5499C7.76291 70.3034 8.01544 70.1364 8.30841 70.0807C8.37936 70.0669 8.45032 70.0601 8.52051 70.0601C8.74176 70.0601 8.95767 70.1264 9.14459 70.2538L10.154 70.939C10.154 70.9397 10.1547 70.9397 10.1547 70.9397L27.8343 82.9499C28.3424 83.2948 28.4752 83.9898 28.1303 84.4979ZM80.7625 60.0343C80.7274 60.0594 80.6938 60.0869 80.661 60.1159L71.4035 68.316C68.7935 70.3629 65.8485 71.8492 62.6511 72.7326L57.2647 74.2211C53.7964 75.1801 50.1083 75.3793 46.5996 74.7979C43.1801 74.2318 38.1172 73.5978 33.6334 74.6362C31.0364 75.2374 28.6652 76.7297 26.9402 78.8049L13.1134 69.4123L19.8242 61.2626C22.3625 58.8662 25.5814 57.4433 28.6636 57.3564H28.7231C29.6791 57.3403 30.6908 57.6219 31.7612 57.9217C31.9763 57.9812 32.1907 58.0415 32.4059 58.0995L42.0921 60.7125C42.3141 60.772 42.5468 60.7789 42.7719 60.7316L55.4581 58.0865C56.0333 57.9675 56.6376 58.0842 57.1159 58.4084C57.4249 58.6183 57.666 58.9066 57.8133 59.2416C58.2481 60.2281 57.8384 61.3862 56.8665 61.8867L52.5383 64.1786C51.9394 64.4959 51.6373 65.1826 51.8074 65.8387C51.9783 66.4956 52.5757 66.9427 53.2547 66.9335L59.6748 66.7947C59.8022 66.7916 59.9281 66.7726 60.0494 66.7375L69.0956 64.1206C69.2383 64.0794 69.3733 64.0168 69.4969 63.9352L78.6232 57.8942C79.3892 57.4212 80.4085 57.0321 80.9509 57.8324C81.3736 58.455 81.3835 59.5757 80.7625 60.0343Z" fill="#B78E35"/>
</svg>
