<svg width="38" height="180" viewBox="0 0 38 180" fill="none" xmlns="http://www.w3.org/2000/svg">
<path d="M23.4914 133.88L24.3132 131.64L25.5759 130.26L26.1171 128.42C26.4579 128.3 27.1193 128 27.2797 127.62C27.2797 127.6 27.2797 127.58 27.2997 127.54C25.3555 126.12 22.4491 125.2 19.202 125.2C15.9749 125.2 13.0886 126.1 11.1444 127.5C11.2246 127.74 11.4851 128.18 12.3671 128.5C12.3871 128.5 12.4472 128.5 12.4873 128.52L12.788 130.26L14.0106 131.62L14.8525 133.88L0 180H1.42311L16.937 145.74L18.4804 180H20.3245L21.8077 145.64L35.2972 180H37.1613L23.4914 133.88ZM14.5117 136.06C14.4717 136.22 14.3915 136.34 14.3314 136.32C14.2712 136.3 14.2512 136.16 14.3113 136C14.3514 135.84 14.4316 135.72 14.4917 135.74C14.5518 135.76 14.5719 135.9 14.5117 136.06ZM14.6921 132.66C14.632 132.5 14.6721 132.34 14.7523 132.32C14.8525 132.28 14.9728 132.4 15.0128 132.54C15.073 132.7 15.0329 132.86 14.9527 132.88C14.8525 132.92 14.7322 132.82 14.6921 132.66ZM15.1932 140.62C15.0529 140.6 14.9327 140.46 14.9527 140.3C14.9527 140.12 15.093 140 15.2534 140.02C15.3937 140.02 15.5139 140.16 15.4939 140.34C15.4939 140.5 15.3536 140.62 15.1932 140.62ZM15.9549 136.36C15.7945 136.34 15.6743 136.2 15.6943 136.04C15.6943 135.88 15.8346 135.74 15.995 135.76C16.1353 135.76 16.2556 135.9 16.2355 136.08C16.2355 136.24 16.0952 136.36 15.9549 136.36ZM16.2556 132.6C16.1353 132.64 15.9749 132.54 15.9349 132.38C15.8747 132.22 15.9549 132.06 16.0752 132.02C16.2155 131.98 16.3558 132.08 16.3959 132.24C16.456 132.38 16.3959 132.56 16.2556 132.6ZM16.5562 140.62C16.476 140.6 16.4159 140.46 16.436 140.3C16.456 140.14 16.5161 140 16.5963 140.02C16.6564 140.02 16.7166 140.16 16.6965 140.32C16.6965 140.48 16.6164 140.62 16.5562 140.62ZM16.8769 136.14C16.7767 136.14 16.7166 136 16.7166 135.84C16.7366 135.66 16.8168 135.54 16.917 135.54C17.0172 135.56 17.0974 135.7 17.0774 135.86C17.0573 136.02 16.9771 136.16 16.8769 136.14ZM16.9972 132.46C16.8569 132.5 16.7166 132.4 16.6564 132.24C16.6163 132.1 16.6765 131.92 16.8168 131.88C16.937 131.84 17.0774 131.94 17.1375 132.1C17.1776 132.26 17.1174 132.42 16.9972 132.46ZM19.4024 136.1C19.2421 136.1 19.1018 135.96 19.1018 135.8C19.1018 135.62 19.2421 135.5 19.4024 135.5C19.5628 135.5 19.7031 135.62 19.7031 135.8C19.7031 135.96 19.5628 136.1 19.4024 136.1ZM19.4024 132.42C19.2421 132.42 19.1018 132.28 19.1018 132.12C19.1018 131.94 19.2421 131.82 19.4024 131.82C19.5628 131.82 19.7031 131.94 19.7031 132.12C19.7031 132.28 19.5628 132.42 19.4024 132.42ZM21.2465 132.48C21.1262 132.46 21.026 132.3 21.046 132.14C21.0661 131.98 21.1863 131.86 21.3266 131.88C21.467 131.9 21.5672 132.04 21.5471 132.2C21.507 132.38 21.3868 132.5 21.2465 132.48ZM21.6674 140.62C21.6073 140.62 21.5471 140.48 21.5471 140.32C21.5471 140.16 21.6073 140.02 21.6674 140.02C21.7476 140.02 21.8077 140.16 21.8077 140.32C21.8077 140.48 21.7476 140.62 21.6674 140.62ZM21.7275 136.14C21.6273 136.16 21.5471 136.04 21.5271 135.86C21.507 135.7 21.5672 135.56 21.6473 135.54C21.7476 135.54 21.8478 135.66 21.8678 135.82C21.8879 135.98 21.8277 136.14 21.7275 136.14ZM21.948 132.6C21.8077 132.56 21.7476 132.4 21.7877 132.24C21.8478 132.08 21.9881 131.98 22.1084 132.02C22.2487 132.06 22.3088 132.22 22.2687 132.38C22.2086 132.54 22.0683 132.64 21.948 132.6ZM22.409 136C22.409 135.84 22.5493 135.72 22.6896 135.72C22.85 135.74 22.9502 135.88 22.9502 136.04C22.9302 136.2 22.8099 136.34 22.6495 136.32C22.5092 136.32 22.389 136.18 22.409 136ZM23.0103 140.6C22.85 140.64 22.7097 140.52 22.6696 140.36C22.6495 140.2 22.7498 140.04 22.8901 140.02C23.0504 140 23.1907 140.1 23.2308 140.26C23.2509 140.42 23.1506 140.58 23.0103 140.6ZM23.2909 132.88C23.2108 132.84 23.1707 132.7 23.2308 132.54C23.2909 132.38 23.4112 132.28 23.5114 132.32C23.5916 132.36 23.6317 132.5 23.5716 132.66C23.5114 132.82 23.3912 132.92 23.2909 132.88ZM23.9524 136.32C23.8923 136.34 23.8121 136.2 23.772 136.04C23.752 135.88 23.772 135.74 23.8321 135.74C23.8923 135.72 23.9724 135.84 23.9925 136C24.0326 136.16 24.0125 136.3 23.9524 136.32Z" fill="#B78E35"/>
<path d="M19.2045 64.9412C15.9374 64.9412 13.2315 66.0612 12.8506 67.5012C12.8306 67.6012 12.8105 67.7212 12.8105 67.8212V67.9012C12.8707 68.2012 13.1914 69.0012 14.6345 69.8412C15.3762 70.4011 15.757 70.6412 15.9574 70.7612C16.3583 70.0612 17.6812 69.5412 19.2647 69.5412C20.788 69.5412 22.0908 70.0212 22.5118 70.7011L23.7745 69.8412C23.7745 69.8412 25.5384 69.2012 25.5985 67.8612C25.5985 67.8412 25.5985 67.8012 25.6186 67.7612C25.5985 67.6812 25.5985 67.5812 25.5785 67.5012C25.1976 66.0612 22.4917 64.9412 19.2045 64.9412Z" fill="#B78E35"/>
<path d="M26.0384 117.379L25.9983 116.339L24.7957 115.679L24.7757 113.979L23.4528 113.239H22.5308L22.4105 70.7992C22.0497 70.1592 20.7869 69.6792 19.2636 69.6792C17.6801 69.6792 16.3773 70.1992 16.0566 70.8792L15.6958 113.239H14.7938L13.7115 113.879L13.6714 115.619L12.4888 116.159L12.4688 117.279V117.319C14.3128 116.379 16.6579 115.839 19.2035 115.839C21.7891 115.839 24.1944 116.419 26.0384 117.379Z" fill="#B78E35"/>
<path d="M19.1903 125.03C22.4294 125.03 25.3378 125.928 27.3121 127.344C27.4324 125.824 27.2881 119.01 27.272 118.322C25.3258 116.91 22.4254 116.014 19.1903 116.014C15.9492 116.014 13.0449 116.914 11.0986 118.328V127.304C11.0986 127.304 11.0986 127.31 11.0986 127.322C13.073 125.918 15.9673 125.03 19.1903 125.03Z" fill="#B78E35"/>
<path d="M14.9875 65.5203C15.8494 65.1803 16.9318 64.9403 18.1144 64.8603C18.4551 64.8203 18.836 64.8003 19.1967 64.8003C20.7802 64.8003 22.2434 65.0603 23.3659 65.5003C23.6465 65.6003 23.907 65.7203 24.1476 65.8603C24.2678 65.9203 24.3881 66.0003 24.5084 66.0603C24.7088 66.1803 24.9092 66.3403 25.0696 66.5003C25.3101 66.7203 25.4905 66.9803 25.6108 67.2403C25.6509 65.3803 25.5907 61.4003 25.5907 61.4003C25.5907 61.3803 25.5907 61.3603 25.5907 61.3603C25.5907 61.3603 25.5907 61.3403 25.5707 61.3203C25.5506 61.3003 25.5506 61.3003 25.5506 61.2803C25.4504 60.9803 24.9493 59.9203 23.5062 59.1203C23.2055 58.9403 22.8648 58.7803 22.4639 58.6403C22.2634 58.5803 22.043 58.5203 21.8024 58.4603C21.3615 58.3403 20.8403 58.2603 20.2791 58.2203C19.9384 58.2003 19.5776 58.1803 19.1767 58.1803H19.0965C18.6756 58.1803 18.2948 58.2003 17.934 58.2403C17.6534 58.2603 17.3928 58.3003 17.1322 58.3403C16.8917 58.4003 16.6512 58.4403 16.4307 58.5003C15.9897 58.6003 15.6089 58.7403 15.2681 58.9003C15.0878 58.9803 14.9474 59.0603 14.7871 59.1403C13.1235 60.0803 12.7827 61.3603 12.7827 61.3603V67.3003C13.0433 66.6003 13.845 65.9603 14.9875 65.5203Z" fill="#B78E35"/>
<path d="M18.1816 47.8799L17.9811 58.0799C18.3419 58.0399 18.7027 58.0199 19.1036 58.0199H19.1838C19.5646 58.0199 19.9053 58.0399 20.2862 58.0599H20.3062L20.1659 47.8799C20.8274 47.7599 21.3084 47.5599 21.3084 47.3199C21.3084 47.0799 20.8273 46.8599 20.1459 46.7599L19.9655 34.3999C20.5066 34.2999 20.8875 34.1399 20.8875 33.9399C20.8875 33.7399 20.5067 33.5599 19.9454 33.4799L19.765 21.22C20.2461 21.16 20.5668 21.04 20.5668 20.88C20.5668 20.74 20.226 20.6 19.765 20.54L19.6047 10.04C20.1258 9.99998 20.5267 9.85998 20.5267 9.67998C20.5267 9.49998 20.1258 9.33998 19.6047 9.29998L19.5045 2.5C19.745 2.48 19.9454 2.4 19.9454 2.28C19.9454 2.18 19.745 2.1 19.4844 2.06L19.4644 0H19.1437L19.1036 2.06C18.8631 2.1 18.6827 2.18 18.6827 2.28C18.6827 2.4 18.8631 2.46 19.1036 2.5L18.9633 9.31998C18.4622 9.35998 18.0813 9.49998 18.0813 9.67998C18.0813 9.83998 18.4421 9.97998 18.9432 10.04L18.7428 20.56C18.3018 20.62 17.9811 20.74 17.9811 20.88C17.9811 21.02 18.2818 21.16 18.7227 21.2L18.4822 33.4999C17.941 33.5799 17.5602 33.7399 17.5602 33.9399C17.5602 34.1399 17.941 34.2999 18.4622 34.3799L18.2016 46.7599C17.5201 46.8599 17.0391 47.0799 17.0391 47.3199C17.0391 47.5599 17.5201 47.7599 18.1816 47.8799Z" fill="#B78E35"/>
</svg>
