<svg width="66" height="64" viewBox="0 0 66 64" fill="none" xmlns="http://www.w3.org/2000/svg">
<rect x="0.5" y="63.5" width="63" height="64.1399" rx="31.5" transform="rotate(-90 0.5 63.5)" stroke="white"/>
<path d="M33.4422 24.9692C33.3922 24.9212 33.3329 24.8837 33.2678 24.8587C33.2027 24.8338 33.1331 24.8219 33.0633 24.8239C32.9934 24.8259 32.9247 24.8416 32.8612 24.8703C32.7977 24.8989 32.7406 24.9397 32.6935 24.9904C32.6464 25.0411 32.6101 25.1006 32.5869 25.1653C32.5636 25.2301 32.5539 25.2988 32.5582 25.3673C32.5625 25.4358 32.5808 25.5028 32.612 25.5642C32.6432 25.6256 32.6866 25.6803 32.7397 25.7249L39.1683 31.49H24.7531C24.6148 31.49 24.4823 31.544 24.3846 31.64C24.2868 31.736 24.2319 31.8662 24.2319 32.002C24.2319 32.1378 24.2868 32.268 24.3846 32.3641C24.4823 32.4601 24.6148 32.514 24.7531 32.514H39.1651L32.7397 38.2781C32.6376 38.3696 32.5766 38.4973 32.5703 38.6329C32.5639 38.7686 32.6127 38.9012 32.7059 39.0016C32.799 39.1019 32.9289 39.1618 33.067 39.168C33.2051 39.1743 33.3401 39.1264 33.4422 39.0348L40.6503 32.5683C40.7309 32.4966 40.7952 32.4091 40.8392 32.3115C40.8833 32.2139 40.906 32.1083 40.906 32.0015C40.906 31.8947 40.8833 31.7891 40.8392 31.6915C40.7952 31.5939 40.7309 31.5064 40.6503 31.4347L33.4422 24.9692Z" fill="white"/>
</svg>
