<svg width="80" height="100" viewBox="0 0 80 100" fill="none" xmlns="http://www.w3.org/2000/svg">
<path d="M79.5508 33.6914C79.5508 21.5639 74.8268 10.1609 66.249 1.58301L65.2133 0.547266L56.8939 8.8666C50.8949 3.36387 42.9035 0 34.1406 0C20.8416 0 8.75371 7.85449 3.34531 20.01L6.02207 21.201C7.45781 17.9742 9.41172 15.0822 11.7557 12.599L23.5748 16.7691L25.8022 26.9801L30.0094 33.9182L37.4879 34.9264L39.4787 28.3088L44.2881 24.4068L56.184 21.5551L57.7699 14.0176C62.2207 19.3547 64.9023 26.2154 64.9023 33.6914C64.9023 35.4893 64.7457 37.251 64.4484 38.9652L59.2172 34.7057L49.6549 36.3572L46.5906 43.2469L41.5047 46.6574H23.3672V56.0324L30.5381 60.6043L33.183 64.4369C25.4775 64.2 18.4773 61.1156 13.1998 56.2027L17.608 48.5123V43.6564L22.5359 41.9691V36.2553L16.5928 32.2266H3.41445C3.54922 29.3461 4.08086 26.5191 5.00234 23.8039L2.22813 22.8625C1.04766 26.3404 0.449219 29.984 0.449219 33.6914C0.449219 42.4543 3.81309 50.4455 9.31582 56.4445L0.996484 64.7639L2.03223 65.7998C10.2637 74.0312 21.0973 78.7109 32.6758 79.0756V88.2812H19.4922V100H32.6758V97.0703H22.4219V91.2109H51.7188V97.0703H41.4648V100H54.6484V88.2812H41.4648V78.508C63.0336 74.9953 79.5508 56.2375 79.5508 33.6914ZM42.9586 21.7133L36.933 26.602L35.4025 31.6893L31.7887 31.202L28.5605 25.8785L26.0895 14.5498L14.1363 10.3324C19.609 5.65176 26.6639 2.92969 34.1406 2.92969C42.3428 2.92969 49.8051 6.15664 55.3254 11.4072L53.6986 19.1385L42.9586 21.7133ZM26.2969 54.4256V49.5871H42.3961L48.924 45.2096L51.6957 38.9779L58.4016 37.8195L63.7195 42.1498C60.2605 54.2279 49.5865 63.2875 36.6809 64.3477L32.6129 58.4523L26.2969 54.4256ZM19.6063 37.8086V39.8756L14.6783 41.5629V47.7322L11.0742 54.0199C6.58984 48.9377 3.75449 42.3684 3.41465 35.1562H15.6936L19.6063 37.8086ZM11.3875 58.5162C17.3865 64.0191 25.3777 67.383 34.1406 67.383C52.7182 67.383 67.832 52.2689 67.832 33.6914C67.832 24.9285 64.4682 16.9373 58.9654 10.9383L61.0506 8.85312C67.3244 15.6371 70.7617 24.4002 70.7617 33.6914C70.7617 53.8846 54.3336 70.3127 34.1406 70.3127C24.8494 70.3127 16.0863 66.8752 9.30234 60.6014L11.3875 58.5162ZM7.2293 62.6746C14.5676 69.501 24.0668 73.2424 34.1406 73.2424C55.949 73.2424 73.6914 55.4998 73.6914 33.6914C73.6914 23.6176 69.95 14.1186 63.1236 6.78008L65.1957 4.70801C72.5748 12.601 76.6211 22.8361 76.6211 33.6914C76.6211 57.1152 57.5645 76.1719 34.1406 76.1719C23.2852 76.1719 13.05 72.1256 5.15703 64.7467L7.2293 62.6746ZM38.5352 88.2812H35.6055V79.0754C36.59 79.0439 37.567 78.9814 38.5352 78.8881V88.2812Z" fill="#B78E35"/>
<path d="M35.6055 97.0703H38.5352V100H35.6055V97.0703Z" fill="#B78E35"/>
<path d="M47.3242 11.7185H50.2539V14.6482H47.3242V11.7185Z" fill="#B78E35"/>
<path d="M41.4648 8.78906H44.3945V11.7188H41.4648V8.78906Z" fill="#B78E35"/>
</svg>
