<svg width="62" height="126" viewBox="0 0 62 126" fill="none" xmlns="http://www.w3.org/2000/svg">
<path fill-rule="evenodd" clip-rule="evenodd" d="M28.216 84.0758L27.339 3.96918C25.5002 4.67582 26.4468 10.0435 26.4682 12.1401C26.6402 28.9333 24.8309 49.7762 23.5982 66.7259C23.4214 69.1559 23.3158 73.4169 22.8787 75.509C22.7333 67.1894 23.6146 57.7674 23.89 49.1271L24.335 6.82761C22.9995 7.63225 23.5125 10.8063 23.4214 14.1281C23.1691 23.3403 20.9445 67.0398 18.9506 69.4183C18.7087 69.7068 0 76.7256 0 98.3594C0 109.93 7.48551 121.82 17.4991 126C17.6701 124.743 17.7555 115.792 17.2148 114.493C16.156 111.948 11.8364 111.085 17.8026 107.581C18.987 106.885 19.0089 106.857 19.5876 105.392C20.3749 103.397 20.0519 104.248 22.3502 103.861C22.8637 102.533 22.3528 102.322 23.5677 101.788C26.9608 100.297 25.656 103.281 27.0338 96.6531C30.2731 96.0825 34.9801 97.9296 38.299 97.3733C39.7306 97.1333 41.1633 95.9389 42.5433 95.3273C44.0372 94.6657 45.6201 94.2016 47.1602 93.6967L43.3335 73.0554C46.2773 73.4286 51.4635 78.6132 52.9222 80.4548C55.9403 84.2656 56.9418 86.9161 58.5727 92.3114L61.3907 92.3662C61.0023 88.9904 59.2777 85.0257 57.804 82.5074C55.0971 77.882 50.6087 73.3913 45.9681 70.8939C45.2374 70.5007 44.4073 70.3024 43.5359 69.6911C42.1749 68.7364 41.6452 59.9351 41.4247 57.8982C39.9774 44.5217 38.5075 23.5546 38.4607 9.47532C38.4514 6.65732 38.3632 7.23695 37.6178 6.7358C37.5407 22.3847 37.5985 36.7422 38.1974 52.6028C38.3813 57.4725 38.538 62.3454 38.7946 67.1999C39.0215 71.4902 39.0448 76.9406 39.5044 81.1025C39.4007 74.9044 37.5386 56.7194 37.0151 48.4804C36.2494 36.43 35.4928 25.3237 35.4928 13.1308C35.4928 10.4721 36.3717 5.48212 35.0933 3.8405L34.6744 5.51042C34.217 12.6418 34.2824 32.5022 34.1754 39.8885L33.8477 86.2787C33.3344 72.0189 32.5963 57.6646 32.1987 43.1848L31.6312 2.2015C31.6267 0.788934 31.8203 0.688089 31.1032 0C29.8426 0.879318 30.3646 7.08948 30.3404 9.82709L29.8102 41.8702C29.4477 55.9961 28.831 69.9691 28.2162 84.0753L28.216 84.0758Z" fill="#B78E35"/>
</svg>
