<svg width="32" height="32" viewBox="0 0 32 32" fill="none" xmlns="http://www.w3.org/2000/svg">
<path fill-rule="evenodd" clip-rule="evenodd" d="M0 15.7032C0 7.03058 7.16344 0 16 0C24.8366 0 32 7.03058 32 15.7032C32 24.3759 24.8366 31.4065 16 31.4065C7.16344 31.4065 0 24.3759 0 15.7032ZM24.1767 11.8253C23.9804 11.0853 23.4021 10.5026 22.6677 10.3048C21.3369 9.94539 16 9.94539 16 9.94539C16 9.94539 10.6631 9.94539 9.33217 10.3048C8.59782 10.5026 8.01949 11.0853 7.82322 11.8253C7.46667 13.1665 7.46667 15.965 7.46667 15.965C7.46667 15.965 7.46667 18.7633 7.82322 20.1046C8.01949 20.8446 8.59782 21.4273 9.33217 21.6252C10.6631 21.9845 16 21.9845 16 21.9845C16 21.9845 21.3369 21.9845 22.6677 21.6252C23.4021 21.4273 23.9804 20.8446 24.1767 20.1046C24.5333 18.7633 24.5333 15.965 24.5333 15.965C24.5333 15.965 24.5333 13.1665 24.1767 11.8253Z" fill="white" fill-opacity="0.8"/>
<path fill-rule="evenodd" clip-rule="evenodd" d="M14.4 18.8438V13.6094L18.6667 16.2267L14.4 18.8438Z" fill="white" fill-opacity="0.8"/>
</svg>
