<svg width="32" height="32" viewBox="0 0 32 32" fill="none" xmlns="http://www.w3.org/2000/svg">
<path fill-rule="evenodd" clip-rule="evenodd" d="M32 15.7032C32 24.3759 24.8365 31.4065 16 31.4065C7.16347 31.4065 0 24.3759 0 15.7032C0 7.03061 7.16347 0 16 0C24.8365 0 32 7.03061 32 15.7032ZM10.7143 14.2648C9.11153 14.9516 7.46473 15.6573 5.95883 16.4714C5.17251 17.0365 6.21759 17.4362 7.19807 17.8111C7.35393 17.8707 7.50813 17.9296 7.65313 17.9885C7.7738 18.025 7.89647 18.0633 8.0208 18.1022C9.11127 18.4431 10.3271 18.8234 11.3858 18.2514C13.1249 17.271 14.766 16.1374 16.4059 15.0048C16.9432 14.6337 17.4803 14.2627 18.0207 13.8972C18.0461 13.8813 18.0746 13.8631 18.1059 13.8433C18.5662 13.5503 19.6016 12.8916 19.2186 13.7993C18.313 14.7713 17.3429 15.6317 16.3677 16.4969C15.7103 17.08 15.0506 17.6652 14.4066 18.2881C13.8457 18.7353 13.2633 19.6348 13.8913 20.2612C15.3379 21.2551 16.8071 22.2249 18.2755 23.1942C18.7533 23.5095 19.2311 23.8249 19.7079 24.1411C20.516 24.7743 21.779 24.262 21.9567 23.2725C22.0357 22.8173 22.115 22.3622 22.1943 21.907C22.6327 19.3914 23.0713 16.8749 23.4587 14.3511C23.5113 13.9552 23.571 13.5594 23.6307 13.1633C23.7755 12.2034 23.9204 11.2423 23.9657 10.2772C23.849 9.31405 22.6591 9.52585 21.997 9.74242C18.5935 11.0135 15.2241 12.3787 11.8679 13.7681C11.4877 13.9334 11.1023 14.0985 10.7143 14.2648Z" fill="white" fill-opacity="0.8"/>
</svg>
