<svg width="32" height="32" viewBox="0 0 32 32" fill="none" xmlns="http://www.w3.org/2000/svg">
<path fill-rule="evenodd" clip-rule="evenodd" d="M0 15.7032C0 7.03058 7.16344 0 16 0C24.8366 0 32 7.03058 32 15.7032C32 24.3759 24.8366 31.4065 16 31.4065C7.16344 31.4065 0 24.3759 0 15.7032ZM16.0008 7.32818C13.6833 7.32818 13.3924 7.33813 12.4822 7.37878C11.5737 7.41961 10.9536 7.56077 10.4111 7.76788C9.8498 7.98179 9.37371 8.26794 8.89939 8.73364C8.42472 9.19916 8.13316 9.66642 7.91449 10.2171C7.70294 10.7498 7.55893 11.3585 7.51804 12.2498C7.47733 13.1432 7.46667 13.4288 7.46667 15.7033C7.46667 17.9779 7.47698 18.2625 7.51822 19.1558C7.56 20.0474 7.70382 20.656 7.91467 21.1885C8.13281 21.7394 8.42437 22.2066 8.89886 22.6722C9.373 23.138 9.84909 23.4249 10.41 23.6388C10.9529 23.8459 11.5732 23.9871 12.4815 24.0279C13.3917 24.0685 13.6824 24.0785 15.9997 24.0785C18.3174 24.0785 18.6074 24.0685 19.5176 24.0279C20.4261 23.9871 21.0469 23.8459 21.5898 23.6388C22.1509 23.4249 22.6263 23.138 23.1004 22.6722C23.5751 22.2066 23.8667 21.7394 24.0853 21.1887C24.2951 20.656 24.4391 20.0472 24.4818 19.156C24.5227 18.2626 24.5333 17.9779 24.5333 15.7033C24.5333 13.4288 24.5227 13.1433 24.4818 12.25C24.4391 11.3584 24.2951 10.7498 24.0853 10.2173C23.8667 9.66642 23.5751 9.19916 23.1004 8.73364C22.6258 8.26777 22.1511 7.98162 21.5893 7.76788C21.0453 7.56077 20.4248 7.41961 19.5164 7.37878C18.6062 7.33813 18.3164 7.32818 15.9981 7.32818H16.0008Z" fill="white" fill-opacity="0.8"/>
<path fill-rule="evenodd" clip-rule="evenodd" d="M15.2353 8.83745C15.4625 8.8371 15.716 8.83745 16.0008 8.83745C18.2792 8.83745 18.5493 8.84548 19.449 8.88561C20.281 8.92295 20.7326 9.0594 21.0334 9.17403C21.4316 9.32583 21.7155 9.50729 22.014 9.80042C22.3127 10.0936 22.4976 10.3727 22.6526 10.7636C22.7694 11.0584 22.9086 11.5016 22.9465 12.3182C22.9874 13.2011 22.9963 13.4663 22.9963 15.7014C22.9963 17.9365 22.9874 18.2017 22.9465 19.0846C22.9084 19.9012 22.7694 20.3444 22.6526 20.6393C22.4979 21.0301 22.3127 21.3084 22.014 21.6014C21.7153 21.8945 21.4318 22.076 21.0334 22.2278C20.7329 22.3429 20.281 22.479 19.449 22.5163C18.5494 22.5565 18.2792 22.5652 16.0008 22.5652C13.7222 22.5652 13.4522 22.5565 12.5526 22.5163C11.7206 22.4787 11.269 22.3422 10.968 22.2276C10.5698 22.0758 10.2854 21.8943 9.98669 21.6012C9.68802 21.3081 9.50313 21.0296 9.34811 20.6386C9.23131 20.3437 9.09211 19.9005 9.05424 19.0839C9.01335 18.201 9.00517 17.9358 9.00517 15.6993C9.00517 13.4628 9.01335 13.199 9.05424 12.3161C9.09228 11.4995 9.23131 11.0563 9.34811 10.7611C9.50278 10.3703 9.68802 10.0911 9.98669 9.79798C10.2854 9.50485 10.5698 9.32339 10.968 9.17124C11.2688 9.05608 11.7206 8.91998 12.5526 8.88247C13.3398 8.84757 13.6449 8.8371 15.2353 8.83536V8.83745ZM20.5559 10.2281C19.9905 10.2281 19.5319 10.6777 19.5319 11.2327C19.5319 11.7876 19.9905 12.2378 20.5559 12.2378C21.1212 12.2378 21.5799 11.7876 21.5799 11.2327C21.5799 10.6779 21.1212 10.2281 20.5559 10.2281ZM16.0008 11.4023C13.5807 11.4023 11.6185 13.3281 11.6185 15.7033C11.6185 18.0786 13.5807 20.0035 16.0008 20.0035C18.4209 20.0035 20.3824 18.0786 20.3824 15.7033C20.3824 13.3281 18.4209 11.4023 16.0008 11.4023Z" fill="white" fill-opacity="0.8"/>
<path fill-rule="evenodd" clip-rule="evenodd" d="M16.0008 12.9116C17.5717 12.9116 18.8453 14.1614 18.8453 15.7033C18.8453 17.2451 17.5717 18.4951 16.0008 18.4951C14.4298 18.4951 13.1563 17.2451 13.1563 15.7033C13.1563 14.1614 14.4298 12.9116 16.0008 12.9116Z" fill="white" fill-opacity="0.8"/>
</svg>
