<svg width="78" height="74" viewBox="0 0 78 74" fill="none" xmlns="http://www.w3.org/2000/svg">
    <path fill-rule="evenodd" clip-rule="evenodd" d="M43.6011 4.40411L51.2153 19.6156C51.9615 21.1089 53.4019 22.1444 55.0723 22.384L72.1056 24.8358C76.314 25.4434 77.9887 30.5439 74.943 33.4663L62.6258 45.3018C61.4153 46.4656 60.8643 48.1387 61.1506 49.7818L64.0575 66.4908C64.7734 70.6242 60.374 73.7778 56.6125 71.8223L41.3884 63.9278C39.8959 63.1533 38.1084 63.1533 36.6116 63.9278L21.3875 71.8223C17.626 73.7778 13.2266 70.6242 13.9468 66.4908L16.8494 49.7818C17.1357 48.1387 16.5847 46.4656 15.3742 45.3018L3.057 33.4663C0.0113137 30.5439 1.68601 25.4434 5.89443 24.8358L22.9277 22.384C24.5981 22.1444 26.0428 21.1089 26.7891 19.6156L34.3989 4.40411C36.2819 0.642966 41.7181 0.642966 43.6011 4.40411Z" stroke="#B78E35" stroke-width="1.5" stroke-linecap="round" stroke-linejoin="round"/>
</svg>
