<svg width="24" height="26" viewBox="0 0 24 26" fill="none" xmlns="http://www.w3.org/2000/svg">
<path d="M22.9856 14.3392C23.0605 14.2624 23.1192 14.1713 23.1582 14.0714C23.1972 13.9715 23.2157 13.8647 23.2126 13.7575C23.2095 13.6503 23.1849 13.5448 23.1402 13.4472C23.0955 13.3497 23.0317 13.2622 22.9525 13.1899C22.8732 13.1175 22.7803 13.0619 22.6791 13.0262C22.578 12.9905 22.4707 12.9755 22.3636 12.9821C22.2565 12.9887 22.1519 13.0168 22.0559 13.0647C21.9599 13.1126 21.8745 13.1793 21.8048 13.2608L12.7968 23.1296V0.999997C12.7968 0.787824 12.7125 0.584341 12.5625 0.434312C12.4125 0.284283 12.209 0.199997 11.9968 0.199997C11.7847 0.199997 11.5812 0.284283 11.4311 0.434312C11.2811 0.584341 11.1968 0.787824 11.1968 0.999997V23.1248L2.19043 13.2608C2.04743 13.104 1.84799 13.0104 1.636 13.0007C1.42401 12.9909 1.21683 13.0658 1.06003 13.2088C0.903236 13.3518 0.80967 13.5512 0.799918 13.7632C0.790167 13.9752 0.865028 14.1824 1.00803 14.3392L11.112 25.4048C11.2241 25.5284 11.3608 25.6272 11.5133 25.6948C11.6658 25.7624 11.8308 25.7974 11.9976 25.7974C12.1645 25.7974 12.3295 25.7624 12.482 25.6948C12.6345 25.6272 12.7712 25.5284 12.8832 25.4048L22.9856 14.3392Z" fill="white"/>
</svg>
