<svg width="87" height="67" viewBox="0 0 87 67" fill="none" xmlns="http://www.w3.org/2000/svg">
    <path d="M68.5322 29.4029C74.3447 28.5863 78.8197 23.6029 78.8322 17.5654C78.8322 11.6154 74.4947 6.68211 68.8072 5.74878" stroke="#B78E35" stroke-width="2" stroke-linecap="round" stroke-linejoin="round"/>
    <path d="M76.2021 43.377C81.8313 44.2186 85.7605 46.1895 85.7605 50.2519C85.7605 53.0478 83.9105 54.8644 80.9188 56.0061" stroke="#B78E35" stroke-width="2" stroke-linecap="round" stroke-linejoin="round"/>
    <path fill-rule="evenodd" clip-rule="evenodd" d="M43.5279 45.0994C30.1362 45.0994 18.6987 47.1285 18.6987 55.2327C18.6987 63.3327 30.0654 65.4202 43.5279 65.4202C56.9196 65.4202 68.3529 63.4119 68.3529 55.3035C68.3529 47.1952 56.9904 45.0994 43.5279 45.0994Z" stroke="#B78E35" stroke-width="2" stroke-linecap="round" stroke-linejoin="round"/>
    <path fill-rule="evenodd" clip-rule="evenodd" d="M43.5283 33.5333C52.3158 33.5333 59.4408 26.4124 59.4408 17.6208C59.4408 8.83325 52.3158 1.70825 43.5283 1.70825C34.7408 1.70825 27.6158 8.83325 27.6158 17.6208C27.5825 26.3791 34.6533 33.5041 43.4117 33.5333H43.5283Z" stroke="#B78E35" stroke-width="2" stroke-linecap="round" stroke-linejoin="round"/>
    <path d="M18.5207 29.4029C12.704 28.5863 8.2332 23.6029 8.2207 17.5654C8.2207 11.6154 12.5582 6.68211 18.2457 5.74878" stroke="#B78E35" stroke-width="2" stroke-linecap="round" stroke-linejoin="round"/>
    <path d="M10.8498 43.377C5.22067 44.2186 1.2915 46.1895 1.2915 50.2519C1.2915 53.0478 3.1415 54.8644 6.13317 56.0061" stroke="#B78E35" stroke-width="2" stroke-linecap="round" stroke-linejoin="round"/>
</svg>
