<svg width="18" height="16" viewBox="0 0 18 16" fill="none" xmlns="http://www.w3.org/2000/svg">
<path d="M9.85671 0.969303C9.80756 0.921365 9.74928 0.8838 9.68532 0.858842C9.62137 0.833884 9.55304 0.822042 9.48442 0.824024C9.41579 0.826005 9.34827 0.841768 9.28586 0.870374C9.22345 0.898979 9.16743 0.939844 9.12113 0.990538C9.07484 1.04123 9.03921 1.10072 9.01637 1.16546C8.99352 1.2302 8.98393 1.29887 8.98817 1.3674C8.9924 1.43592 9.01038 1.50289 9.04102 1.56433C9.07166 1.62576 9.11434 1.68041 9.16653 1.72501L15.4826 7.49013L1.31962 7.49013C1.18383 7.49013 1.0536 7.54408 0.957579 7.6401C0.86156 7.73611 0.807617 7.86634 0.807617 8.00213C0.807617 8.13793 0.86156 8.26816 0.957579 8.36417C1.0536 8.46019 1.18383 8.51413 1.31962 8.51413H15.4795L9.16653 14.2782C9.06618 14.3698 9.0063 14.4974 9.00006 14.6331C8.99382 14.7687 9.04173 14.9013 9.13325 15.0017C9.22477 15.102 9.35241 15.1619 9.48809 15.1682C9.62376 15.1744 9.75636 15.1265 9.85671 15.035L16.9387 8.56841C17.0178 8.4967 17.081 8.40923 17.1243 8.31161C17.1676 8.21399 17.1899 8.1084 17.1899 8.00162C17.1899 7.89485 17.1676 7.78925 17.1243 7.69164C17.081 7.59402 17.0178 7.50654 16.9387 7.43484L9.85671 0.969303Z" fill="white"/>
</svg>
